<svg width="55" height="56" viewBox="0 0 55 56" fill="none" xmlns="http://www.w3.org/2000/svg">
<path d="M20.9741 14.2639C20.4325 13.6418 19.8998 13.0241 19.3761 12.4019L19.309 12.3168C18.9912 11.8692 18.7002 11.453 18.4406 11.0412C12.2279 16.3721 7.1879 22.379 4.59628 28.7125C2.26874 34.3926 1.93304 40.3502 4.53809 46.2944C4.63776 46.5192 4.67378 46.7671 4.64221 47.011C4.61063 47.2549 4.51269 47.4854 4.35905 47.6775C3.62946 48.5727 3.4907 49.4679 3.7145 50.1035C3.80489 50.3769 3.95821 50.6252 4.1621 50.8286C4.37256 51.0368 4.6307 51.1905 4.91408 51.2762C5.29237 51.3653 5.68736 51.3544 6.06016 51.2446C6.43296 51.1347 6.77072 50.9296 7.04019 50.6495C7.22796 50.4765 7.46118 50.3606 7.7125 50.3154C7.96381 50.2702 8.2228 50.2976 8.45909 50.3944C14.3093 52.7712 20.231 53.0442 26.2423 50.7928C32.0343 48.6174 37.9471 44.1056 44.0032 36.8858C42.9284 36.2217 41.8996 35.486 40.9237 34.6836C39.1289 33.1774 37.4208 31.571 35.8076 29.8718C33.9142 28.1486 31.9896 26.291 30.1231 24.4245C26.8992 21.2027 23.8496 17.811 20.9875 14.2639H20.9741ZM54.5174 3.13204C54.0886 6.39692 52.4083 9.36755 49.831 11.4172C49.2157 11.9119 48.565 12.3607 47.8839 12.76C49.5067 14.8661 50.8922 17.1447 52.0153 19.5546C53.2283 22.1373 54.6651 25.8747 54.9471 29.4018C55.1664 32.0875 54.7323 34.6746 53.1075 36.6754C51.3439 38.8418 49.0208 39.0163 46.5098 38.0764C40.0016 45.9587 33.5696 50.8912 27.2047 53.2949C20.7637 55.7074 14.4301 55.5329 8.195 53.1651C7.61962 53.5687 6.96196 53.8399 6.2693 53.9591C5.57663 54.0782 4.86616 54.0425 4.18896 53.8544C3.49516 53.6597 2.85716 53.3039 2.32693 52.8159C1.79257 52.3149 1.38849 51.6912 1.14974 50.9987C0.916938 50.2797 0.850766 49.5172 0.956232 48.7688C1.0617 48.0205 1.33604 47.3059 1.75848 46.6793C-0.842094 40.2294 -0.412396 33.8152 2.0897 27.701C4.92303 20.7676 10.433 14.2639 17.1694 8.56594C16.9994 8.12986 16.8647 7.68081 16.7666 7.22313C16.5709 6.46635 16.5561 5.67415 16.7233 4.91056C16.8904 4.14698 17.2349 3.43346 17.7289 2.82767C19.5954 0.553852 22.3482 -0.135456 25.2889 0.0212051C29.2681 0.231578 33.6054 2.01304 36.2955 3.35137C39.6484 5.00028 42.7039 7.1951 45.3371 9.84608C45.4445 9.72971 45.5519 9.61333 45.6549 9.49248C47.3307 7.56673 48.5134 5.26262 49.1014 2.77844C49.1683 2.41214 49.3202 2.06664 49.5449 1.76969C49.7695 1.47274 50.0607 1.23261 50.395 1.0686C50.8116 0.858158 51.271 0.74636 51.7378 0.741845C52.2012 0.735827 52.66 0.833714 53.0806 1.02831C53.4444 1.19025 53.7637 1.43756 54.0115 1.74925C54.2593 2.06094 54.4282 2.42781 54.504 2.81872C54.5241 2.92521 54.5241 3.03451 54.504 3.141L54.5174 3.13204ZM45.4087 14.0088C43.7515 14.6924 42.0363 15.2257 40.2836 15.6023C40.0462 15.6812 39.7872 15.6626 39.5634 15.5505C39.3397 15.4385 39.1697 15.2421 39.0908 15.0047C39.0118 14.7673 39.0304 14.5082 39.1425 14.2845C39.2546 14.0608 39.4509 13.8908 39.6883 13.8118C40.9782 13.2239 42.2012 12.4991 43.3363 11.6499C40.9258 9.25604 38.1391 7.2737 35.087 5.78185C32.6117 4.54647 28.646 2.90824 25.1502 2.72473C23.0062 2.60835 21.0457 3.05595 19.8192 4.53752C19.5914 4.83707 19.4365 5.18552 19.3665 5.5553C19.2966 5.92508 19.3137 6.30606 19.4164 6.6681C19.5404 7.22818 19.7328 7.77088 19.9893 8.28395C20.9312 9.73794 21.9456 11.1437 23.0286 12.4959C24.3863 14.0625 25.7634 15.5888 27.1599 17.0749C29.0995 19.1637 31.1331 21.2361 33.2607 23.2921C33.7084 23.7128 34.3484 24.42 35.1452 25.266C35.8658 26.0403 36.7073 26.9356 37.6249 27.88C40.5118 30.5675 43.5839 33.0488 46.8186 35.3057C48.5374 36.0845 50.0369 36.1606 50.9903 34.9834C52.1093 33.6093 52.3958 31.6846 52.2302 29.6122C51.975 26.4521 50.6635 23.0504 49.5445 20.6602C48.4352 18.2631 47.0405 16.0088 45.3908 13.9461L45.4087 14.0088Z" fill="black"/>
</svg>
