<svg width="60" height="53" viewBox="0 0 60 53" fill="none" xmlns="http://www.w3.org/2000/svg">
<path fill-rule="evenodd" clip-rule="evenodd" d="M30.0939 17.0733V17.7325C31.2462 16.043 32.589 14.71 34.1417 13.6504C36.6319 11.9415 39.6153 10.9649 43.1505 10.3399C43.7169 10.2422 44.2589 10.6182 44.3566 11.1895C44.4542 11.7559 44.0782 12.2979 43.5069 12.3956C40.2501 12.9669 37.5304 13.8506 35.3136 15.3692C33.5265 16.5948 32.0421 18.2549 30.8409 20.5254C39.3224 21.3751 44.3419 20.545 47.9894 17.8936C51.6026 15.2618 54.0441 10.7159 57.2325 4.17291C56.295 4.22662 55.3185 4.27545 54.3273 4.31939C47.9015 4.61724 40.8605 4.94439 36.4659 8.81158C35.3429 9.80279 34.2442 10.9893 33.1749 12.3809C32.1349 13.7237 31.1095 15.2862 30.0939 17.0733ZM26.9396 11.7315C26.5831 11.253 26.1827 10.8721 25.7433 10.5645C24.879 9.96392 23.8146 9.61236 22.5499 9.33404C21.9884 9.21197 21.6271 8.65533 21.7491 8.0938C21.8712 7.53228 22.4278 7.17095 22.9894 7.29302C24.4982 7.62505 25.797 8.05962 26.92 8.83599C26.837 8.58209 26.7442 8.32818 26.6466 8.08404C26.1144 6.77544 25.3331 5.57916 24.254 4.63189C23.0089 3.53814 21.4122 3.33795 19.9523 3.1524L19.9181 3.14752L12.2569 2.67877L14.2394 6.77056C15.6261 9.25591 17.506 10.6377 19.8058 11.3067C21.8321 11.8926 24.2296 11.9561 26.9396 11.7315ZM27.755 14.2169C24.5226 14.5294 21.6271 14.4854 19.0978 13.7481C16.1388 12.8887 13.7413 11.1211 11.9884 7.95709C11.9786 7.93755 11.964 7.91314 11.9542 7.89361L9.01475 1.82427C8.70714 1.18951 8.97569 0.427789 9.61046 0.125054C9.81554 0.0273981 10.0304 -0.0116644 10.2403 0.002984L20.0792 0.608453C20.1329 0.613336 20.1866 0.618218 20.2403 0.627984L20.2648 0.632867C22.1007 0.862359 24.1124 1.11627 25.9337 2.72271C27.3253 3.9483 28.3312 5.47173 29.005 7.13189C29.7423 8.9483 30.0743 10.9258 30.0743 12.8253C30.0743 12.9669 30.0499 13.1036 30.0108 13.2305C30.5089 12.4835 31.0118 11.7803 31.5196 11.1211C32.6915 9.59283 33.8829 8.30865 35.0792 7.25396C40.0206 2.90826 47.4523 2.56158 54.2296 2.24908C55.797 2.17584 57.3253 2.10748 58.8634 1.97564C59.0441 1.96099 59.2296 1.99029 59.4005 2.0733C59.9181 2.32232 60.1378 2.94732 59.8839 3.4649C56.1583 11.1602 53.5216 16.4336 49.2003 19.5782C44.9864 22.6446 39.3468 23.5626 29.8351 22.5225V30.877C33.8097 25.335 37.6964 25.2422 44.0441 25.0909C45.4015 25.0567 46.8859 25.0225 48.5753 24.92C48.7462 24.9102 48.922 24.9395 49.088 25.0225C49.6056 25.2715 49.8253 25.8965 49.5714 26.4141C46.9786 31.7754 45.2989 35.1006 42.4327 36.9805C39.6886 38.7823 36.0753 39.1094 29.8302 38.4356V52.1026H27.7403V38.7286C19.171 39.6612 13.9708 38.8751 10.0401 36.1407C6.02159 33.3331 3.49229 28.5821 0.103622 21.585C-0.145402 21.0674 0.0694421 20.4424 0.58702 20.1934C0.757919 20.1104 0.938583 20.0811 1.11925 20.0909C2.51085 20.1983 3.93175 20.2569 5.39171 20.3155C11.6612 20.5645 18.7316 20.8428 23.1896 24.7637C25.2794 26.5997 26.7491 28.128 27.7501 29.8126L27.755 14.2169ZM25.465 36.8536C24.0392 34.9786 22.5353 33.5723 20.9337 32.4737C18.9659 31.126 16.8224 30.2227 14.4737 29.4805C13.922 29.3096 13.6192 28.7188 13.795 28.1719C13.9708 27.6202 14.5567 27.3174 15.1036 27.4883C17.628 28.2842 19.9474 29.2657 22.1105 30.7501C23.9952 32.0391 25.7433 33.7042 27.3888 35.9405C27.2667 34.1045 26.92 32.6788 26.256 31.3995C25.3966 29.7344 23.9757 28.2256 21.8126 26.3262C17.9015 22.8887 11.2316 22.6251 5.3087 22.3907C4.43468 22.3565 3.58018 22.3223 2.75987 22.2784C5.6212 28.0987 7.91612 32.1075 11.2462 34.4219C14.4249 36.6338 18.6778 37.3956 25.465 36.8536ZM30.6896 33.3721C31.4708 32.6788 32.3497 32.0928 33.2872 31.5948C35.4454 30.4473 37.9259 29.7637 40.2208 29.3633C40.7872 29.2657 41.3292 29.6417 41.4269 30.2129C41.5245 30.7794 41.1485 31.3213 40.5773 31.419C38.4728 31.7901 36.2071 32.4102 34.2638 33.4405C32.8478 34.1924 31.6075 35.169 30.7433 36.4288C36.0558 36.961 39.1222 36.6729 41.3048 35.2422C43.4386 33.8409 44.9181 31.209 46.9396 27.0879C45.9483 27.127 45.0011 27.1514 44.1026 27.171C38.0138 27.3126 34.4542 27.4004 30.6896 33.3721Z" fill="black"/>
</svg>
