<svg width="35" height="44" viewBox="0 0 35 44" fill="none" xmlns="http://www.w3.org/2000/svg">
<path d="M17.5 43.75C12.4323 42.474 8.2487 39.5664 4.94922 35.0273C1.64974 30.4883 0 25.4479 0 19.9062V6.5625L17.5 0L35 6.5625V19.9062C35 25.4479 33.3503 30.4883 30.0508 35.0273C26.7513 39.5664 22.5677 42.474 17.5 43.75ZM17.5 39.1562C21.2917 37.9531 24.4271 35.5469 26.9062 31.9375C29.3854 28.3281 30.625 24.3177 30.625 19.9062V9.57031L17.5 4.64844L4.375 9.57031V19.9062C4.375 24.3177 5.61458 28.3281 8.09375 31.9375C10.5729 35.5469 13.7083 37.9531 17.5 39.1562Z" fill="black"/>
</svg>